<?xml version="1.0" standalone="no"?>
<!DOCTYPE svg PUBLIC "-//W3C//DTD SVG 20010904//EN"
 "http://www.w3.org/TR/2001/REC-SVG-20010904/DTD/svg10.dtd">
<svg version="1.0" xmlns="http://www.w3.org/2000/svg"
 width="6439.000000pt" height="1602.000000pt" viewBox="0 0 6439.000000 1602.000000"
 preserveAspectRatio="xMidYMid meet">

<g transform="translate(0.000000,1602.000000) scale(0.100000,-0.100000)"
fill="#000000" stroke="none">
<path d="M41687 16013 c-3 -5 -37 -152 -77 -328 -180 -803 -261 -1049 -484
-1480 -160 -308 -223 -396 -317 -447 -65 -34 -175 -32 -294 6 -55 18 -284 126
-585 277 -638 319 -763 369 -923 369 -224 0 -391 -148 -458 -407 -67 -261 -73
-550 -17 -833 11 -58 21 -106 22 -107 1 -1 56 8 122 20 l119 23 0 364 c0 395
7 466 51 558 68 139 197 144 489 18 118 -51 204 -95 685 -353 182 -97 360
-175 474 -206 117 -31 296 -30 381 3 182 71 287 188 454 511 185 358 341 770
441 1169 34 134 180 814 180 836 0 11 -27 14 -129 14 -72 0 -132 -3 -134 -7z"/>
<path d="M41861 14277 c-19 -7 -44 -25 -55 -40 -21 -28 -21 -38 -26 -680 -5
-702 -6 -708 -54 -686 -13 6 -74 71 -136 145 -61 73 -125 145 -141 159 -74 62
-189 2 -189 -99 0 -41 43 -97 356 -466 351 -415 485 -512 724 -527 105 -7 217
18 330 74 99 48 213 160 258 253 65 133 65 141 70 632 3 392 1 450 -13 477
-28 56 -105 77 -164 46 -44 -22 -61 -70 -61 -170 0 -88 -19 -150 -43 -143 -7
3 -20 20 -29 39 -15 27 -18 60 -18 167 0 146 -9 179 -55 200 -33 15 -87 15
-119 1 -43 -20 -55 -62 -59 -209 -2 -112 -6 -141 -22 -167 -24 -40 -28 -41
-46 -5 -9 19 -15 86 -19 225 l-5 199 -33 29 c-26 23 -41 29 -80 29 -28 0 -57
-7 -71 -16 -43 -31 -51 -70 -51 -256 0 -155 -2 -176 -20 -205 -24 -40 -33 -41
-50 -5 -10 20 -14 134 -18 477 -2 248 -8 460 -13 472 -17 45 -90 69 -148 50z"/>
<path d="M43910 10060 l0 -3680 355 0 355 0 0 3680 0 3680 -355 0 -355 0 0
-3680z"/>
<path d="M45780 10060 l0 -3680 355 0 355 0 0 3680 0 3680 -355 0 -355 0 0
-3680z"/>
<path d="M38390 12919 c-91 -32 -230 -82 -310 -110 -259 -90 -517 -230 -753
-408 -449 -337 -702 -726 -788 -1211 -17 -93 -22 -185 -29 -480 -11 -444 -11
-1881 0 -2680 8 -651 5 -620 85 -849 196 -560 566 -984 1106 -1265 157 -82
252 -122 435 -186 l146 -50 392 0 393 0 125 34 c471 129 860 385 1173 771 188
232 354 574 424 875 59 252 56 162 56 1990 0 1873 4 1752 -72 1992 -209 661
-667 1133 -1384 1428 -171 70 -285 105 -445 135 -76 14 -148 29 -158 32 -19 5
-19 -11 -14 -744 6 -851 -2 -775 96 -872 35 -35 67 -80 88 -125 104 -219 135
-624 68 -882 -25 -99 -60 -162 -122 -223 -38 -37 -72 -84 -93 -127 l-34 -69
-2 -545 c-3 -513 -4 -546 -21 -570 -22 -29 -77 -38 -134 -20 l-38 11 0 573 c0
670 5 630 -100 735 -80 79 -121 155 -152 279 -20 80 -22 108 -20 371 2 214 6
301 18 352 22 96 76 176 162 239 38 28 74 62 80 76 18 38 17 1584 0 1583 -7
-1 -87 -28 -178 -60z"/>
<path d="M32075 12053 c-27 -2 -112 -13 -187 -23 -632 -88 -1159 -350 -1608
-800 -462 -461 -722 -992 -815 -1665 -35 -250 -30 -654 11 -930 73 -490 281
-968 590 -1355 96 -120 340 -362 461 -458 314 -248 655 -413 1048 -508 345
-83 792 -102 1155 -48 646 95 1217 405 1600 868 l65 79 3 -1317 2 -1316 360 0
360 0 0 3680 0 3680 -360 0 -360 0 -2 -442 -3 -441 -75 94 c-219 274 -491 491
-815 650 -286 139 -557 216 -884 249 -96 9 -431 11 -546 3z m463 -664 c436
-47 821 -236 1175 -578 385 -371 607 -791 683 -1291 22 -140 24 -485 5 -635
-56 -442 -223 -841 -496 -1180 -138 -172 -363 -378 -539 -493 -330 -217 -654
-312 -1059 -312 -358 0 -645 66 -938 216 -581 297 -1018 869 -1144 1497 -34
174 -45 291 -45 499 0 693 238 1264 712 1713 344 325 753 517 1199 564 121 12
334 13 447 0z"/>
<path d="M49960 12048 c-564 -52 -1086 -258 -1510 -595 -116 -93 -372 -348
-464 -463 -337 -423 -534 -904 -602 -1475 -23 -191 -22 -570 0 -760 83 -686
352 -1242 831 -1720 451 -449 980 -702 1636 -781 179 -22 530 -22 705 -1 336
41 657 138 942 283 325 166 601 395 802 665 l40 53 0 -437 0 -437 350 0 350 0
0 2780 0 2780 -350 0 -350 0 0 -440 0 -441 -79 98 c-96 119 -287 307 -396 390
-378 286 -825 457 -1315 502 -134 13 -453 12 -590 -1z m498 -659 c228 -24 402
-74 612 -175 218 -105 412 -245 600 -434 295 -294 504 -647 599 -1010 57 -214
66 -299 66 -590 -1 -293 -15 -409 -76 -640 -163 -615 -635 -1189 -1199 -1459
-151 -72 -270 -112 -439 -148 -118 -26 -142 -27 -386 -28 -225 0 -276 3 -380
22 -404 73 -754 254 -1064 549 -482 458 -716 1048 -687 1734 25 596 218 1082
593 1493 350 382 797 623 1254 676 52 6 108 13 124 15 69 8 293 5 383 -5z"/>
<path d="M42030 9160 l0 -2780 355 0 355 0 0 2780 0 2780 -355 0 -355 0 0
-2780z"/>
<path d="M59193 4540 c-37 -15 -43 -42 -43 -195 0 -142 1 -147 25 -170 13 -14
36 -25 50 -25 14 0 37 11 50 25 24 23 25 29 25 164 0 156 -8 185 -53 201 -16
5 -30 10 -31 9 -1 0 -11 -4 -23 -9z"/>
<path d="M58705 4345 c-45 -44 -35 -68 71 -176 101 -103 137 -125 179 -115 29
7 56 57 48 86 -3 10 -53 66 -112 124 -119 117 -141 126 -186 81z"/>
<path d="M59574 4238 c-62 -62 -105 -114 -110 -131 -10 -42 22 -81 70 -85 35
-3 42 2 141 105 115 119 128 148 82 191 -46 43 -71 31 -183 -80z"/>
<path d="M59100 3875 l-205 -84 -29442 -1 -29443 0 0 -40 0 -40 29337 -2
29337 -3 -427 -174 c-234 -95 -433 -181 -442 -191 -8 -9 -15 -33 -15 -53 0
-43 0 -43 202 -156 82 -46 151 -87 154 -93 3 -5 -97 -113 -222 -239 -126 -126
-235 -241 -242 -255 -22 -42 0 -75 137 -204 109 -104 131 -120 159 -120 31 0
55 22 269 240 130 132 239 240 242 240 4 0 47 -68 97 -152 49 -84 100 -165
112 -180 28 -33 73 -37 101 -9 10 10 47 90 81 177 34 88 150 386 258 664 l198
505 2237 3 2237 2 0 40 0 40 -1914 0 -1914 0 -6 23 c-9 38 -46 47 -186 47
-142 0 -175 -8 -192 -45 -11 -24 -13 -25 -121 -25 -100 0 -109 1 -102 18 25
58 29 94 14 120 -27 49 -69 42 -299 -53z"/>
<path d="M59525 3535 c-29 -28 -31 -45 -11 -83 17 -32 171 -183 204 -201 49
-26 102 9 102 67 0 34 -9 46 -105 140 -117 114 -144 124 -190 77z"/>
<path d="M9747 3320 c-161 -29 -275 -89 -380 -200 -112 -117 -166 -236 -187
-413 -24 -206 27 -392 143 -515 96 -101 216 -168 435 -243 422 -144 601 -333
578 -609 -12 -148 -54 -248 -143 -341 -87 -92 -208 -139 -354 -139 -165 0
-295 68 -384 199 -53 80 -85 172 -92 269 l-6 72 -125 0 -125 0 6 -92 c7 -114
44 -244 100 -353 57 -111 182 -236 287 -287 119 -59 185 -73 340 -73 231 1
371 56 521 205 76 75 93 99 137 191 57 120 77 186 93 319 27 224 -17 427 -122
560 -91 116 -230 193 -529 295 -251 85 -330 123 -397 191 -89 89 -123 203
-103 347 38 268 288 431 555 362 165 -43 262 -171 300 -397 l6 -38 121 0 121
0 -7 64 c-31 303 -190 525 -429 602 -91 28 -270 41 -360 24z"/>
<path d="M5020 1960 l0 -1320 130 0 130 0 0 1320 0 1320 -130 0 -130 0 0
-1320z"/>
<path d="M5900 3150 l0 -130 265 0 265 0 0 -1190 0 -1190 130 0 130 0 0 1190
0 1190 260 0 260 0 0 130 0 130 -655 0 -655 0 0 -130z"/>
<path d="M13890 1960 l0 -1320 125 0 125 0 0 1320 0 1320 -125 0 -125 0 0
-1320z"/>
<path d="M17510 2955 l0 -325 -190 0 -190 0 0 -130 0 -130 190 0 190 0 0 -865
0 -865 125 0 125 0 0 865 0 865 190 0 190 0 0 130 0 130 -190 0 -190 0 0 325
0 325 -125 0 -125 0 0 -325z"/>
<path d="M18710 3065 l0 -205 125 0 125 0 0 205 0 205 -125 0 -125 0 0 -205z"/>
<path d="M12065 2694 c-229 -37 -408 -128 -570 -290 -140 -140 -230 -293 -283
-482 -25 -91 -27 -110 -26 -292 0 -183 2 -201 27 -285 72 -235 202 -424 390
-566 188 -142 410 -209 651 -196 270 14 493 118 680 317 129 137 213 290 264
479 23 86 25 115 25 276 1 153 -2 191 -21 257 -52 188 -130 325 -268 468 -200
208 -424 307 -709 315 -71 2 -143 1 -160 -1z m276 -258 c150 -27 275 -93 389
-206 171 -169 239 -364 227 -643 -7 -151 -22 -219 -77 -333 -95 -198 -260
-344 -460 -406 -98 -30 -309 -33 -410 -5 -262 72 -474 297 -542 574 -27 115
-30 303 -4 418 22 102 100 262 166 342 101 124 262 228 400 257 83 18 215 19
311 2z"/>
<path d="M20515 2694 c-229 -37 -408 -128 -570 -290 -140 -140 -230 -293 -283
-482 -25 -91 -27 -110 -26 -292 0 -183 2 -201 27 -285 72 -235 202 -424 390
-566 188 -142 410 -209 651 -196 270 14 493 118 680 317 129 137 213 290 264
479 23 86 25 115 25 276 1 153 -2 191 -21 257 -52 188 -130 325 -268 468 -200
208 -424 307 -709 315 -71 2 -143 1 -160 -1z m276 -258 c150 -27 275 -93 389
-206 171 -169 239 -364 227 -643 -7 -151 -22 -219 -77 -333 -95 -198 -260
-344 -460 -406 -98 -30 -309 -33 -410 -5 -262 72 -474 297 -542 574 -27 115
-30 303 -4 418 22 102 100 262 166 342 101 124 262 228 400 257 83 18 215 19
311 2z"/>
<path d="M25152 2660 c-193 -51 -349 -194 -404 -374 -17 -54 -22 -95 -22 -171
0 -170 52 -294 158 -377 61 -49 210 -124 331 -168 117 -42 251 -111 303 -155
22 -20 53 -61 69 -93 25 -51 28 -68 28 -157 0 -89 -3 -106 -27 -150 -32 -62
-103 -129 -166 -157 -37 -17 -68 -22 -142 -22 -83 -1 -102 2 -152 26 -127 59
-228 223 -228 370 l0 38 -131 0 -132 0 6 -72 c15 -166 77 -316 175 -420 79
-83 140 -123 240 -155 239 -77 511 -16 676 151 39 39 83 94 99 123 88 164 88
413 1 585 -36 72 -134 165 -219 209 -39 20 -135 58 -215 84 -243 79 -334 134
-380 232 -31 66 -31 179 0 251 31 71 105 137 178 158 64 19 167 15 225 -9 83
-35 152 -128 165 -224 l7 -48 139 -3 138 -3 -7 53 c-35 269 -176 433 -417 482
-101 21 -206 19 -296 -4z"/>
<path d="M23030 2655 c-156 -30 -279 -88 -379 -180 -32 -30 -61 -55 -65 -55
-3 0 -6 47 -6 105 l0 105 -125 0 -125 0 0 -995 0 -995 124 0 124 0 5 638 c5
702 6 718 69 852 42 88 149 194 240 238 95 46 208 66 338 59 324 -18 472 -171
510 -527 5 -52 10 -357 10 -677 l0 -583 125 0 125 0 0 584 c0 779 -10 891 -99
1071 -88 176 -236 290 -453 346 -108 28 -311 35 -418 14z"/>
<path d="M14913 1968 l3 -663 26 -115 c69 -312 190 -466 435 -551 132 -46 365
-61 513 -35 155 28 260 80 366 182 l64 61 0 -103 0 -104 130 0 130 0 0 995 0
995 -130 0 -130 0 0 -608 c0 -626 -5 -725 -40 -828 -93 -271 -391 -415 -718
-348 -240 49 -353 198 -392 514 -6 50 -10 328 -10 677 l0 593 -126 0 -125 0 4
-662z"/>
<path d="M18710 1635 l0 -995 125 0 125 0 0 995 0 995 -125 0 -125 0 0 -995z"/>
</g>
</svg>
